<svg id="flag-icons-fpzn" data-name="Layer 1" xmlns="http://www.w3.org/2000/svg" viewBox="0 0 640 480"><defs><style>.cls-1{fill:#212939;}.cls-2{fill:#fff;}.cls-2,.cls-3{fill-rule:evenodd;}.cls-3{fill:#5598b0;}</style></defs><rect class="cls-1" width="640" height="480"/><polygon class="cls-2" points="488.8 352.77 306.91 457.78 118.31 348.89 118.31 131.11 306.91 22.22 306.91 89.41 176.49 164.71 176.49 315.29 306.91 390.59 430.47 319.25 488.8 352.77"/><path class="cls-3" d="M437.32,82.26v-60h58.19v93.64l-58.19-33.6Zm84.38,64L321.2,30.47V97.66l116.12,67.05v142l58.19,33.44V198.3l26.19,15.12Z"/><path class="cls-3" d="M242.19,275.22h25.95V258H242.19a1.48,1.48,0,0,1-1.48-1.48v-20a1.48,1.48,0,0,1,1.48-1.48h25.95V160.05a1.48,1.48,0,0,1,1.48-1.47H330.4c56.18,0,60.66,34.29,60.66,47.88S388.2,258,336.57,258h-36.8v17.25h56.59a1.47,1.47,0,0,1,1.48,1.47v20a1.48,1.48,0,0,1-1.48,1.48H299.77V318a1.48,1.48,0,0,1-1.47,1.48H269.62a1.49,1.49,0,0,1-1.48-1.48V298.2H242.19a1.48,1.48,0,0,1-1.48-1.48v-20a1.47,1.47,0,0,1,1.48-1.47Zm57.58-93.66V235h28.9c29.15,0,30.76-19,30.76-26.8s-2-26.63-30.27-26.63Z"/></svg>